<svg version="1.1" xmlns="http://www.w3.org/2000/svg" xmlns:xlink="http://www.w3.org/1999/xlink" x="0px" y="0px" width="1000px"
		height="1000px" viewBox="0 0 1000 1000" enable-background="new 0 0 1000 1000" xml:space="preserve">
<g id="レイヤー_1">
	<line fill="none" stroke="#000000" stroke-opacity="1" x1="100" y1="100" x2="900" y2="100"/>
	<line fill="none" stroke="#000000" stroke-opacity="1" x1="100" y1="100" x2="100" y2="900"/>
	<line fill="none" stroke="#000000" stroke-opacity="1" x1="900" y1="100" x2="900" y2="900"/>
	<line fill="none" stroke="#000000" stroke-opacity="1" x1="100" y1="900" x2="900" y2="900"/>
</g>

<g id="レイヤー_2">
	<line fill="none" stroke="#ff0000" stroke-opacity="0.3" x1="150" y1="100" x2="150" y2="900"/>
	<line fill="none" stroke="#ff0000" stroke-opacity="0.3" x1="200" y1="100" x2="200" y2="900"/>
	<line fill="none" stroke="#ff0000" stroke-opacity="0.3" x1="250" y1="100" x2="250" y2="900"/>
	<line fill="none" stroke="#ff0000" stroke-opacity="0.3" x1="300" y1="100" x2="300" y2="900"/>
	<line fill="none" stroke="#ff0000" stroke-opacity="0.3" x1="350" y1="100" x2="350" y2="900"/>
	<line fill="none" stroke="#ff0000" stroke-opacity="0.3" x1="400" y1="100" x2="400" y2="900"/>
	<line fill="none" stroke="#ff0000" stroke-opacity="0.3" x1="450" y1="100" x2="450" y2="900"/>
	<line fill="none" stroke="#ff0000" stroke-opacity="0.3" x1="500" y1="100" x2="500" y2="900"/>
</g>

<g id="レイヤー_3">
	<line fill="none" stroke="#0000ff" stroke-opacity="0.3" x1="550" y1="100" x2="550" y2="900"/>
	<line fill="none" stroke="#0000ff" stroke-opacity="0.3" x1="600" y1="100" x2="600" y2="900"/>
	<line fill="none" stroke="#0000ff" stroke-opacity="0.3" x1="650" y1="100" x2="650" y2="900"/>
	<line fill="none" stroke="#0000ff" stroke-opacity="0.3" x1="700" y1="100" x2="700" y2="900"/>
	<line fill="none" stroke="#0000ff" stroke-opacity="0.3" x1="750" y1="100" x2="750" y2="900"/>
	<line fill="none" stroke="#0000ff" stroke-opacity="0.3" x1="800" y1="100" x2="800" y2="900"/>
	<line fill="none" stroke="#0000ff" stroke-opacity="0.3" x1="850" y1="100" x2="850" y2="900"/>
	<!-- <line fill="none" stroke="#0000ff" stroke-opacity="0.3" x1="900" y1="100" x2="900" y2="900"/> -->
</g>
</svg>
